<svg width="18" height="18" viewBox="0 0 18 18" fill="none" xmlns="http://www.w3.org/2000/svg">
<path d="M9 0C13.9706 0 18 4.02944 18 9C18 13.9706 13.9706 18 9 18C4.02944 18 0 13.9706 0 9C0 4.02944 4.02944 0 9 0ZM9.53027 4.46973C9.23738 4.17683 8.76262 4.17683 8.46973 4.46973C8.17684 4.76262 8.17684 5.23738 8.46973 5.53027L11.1895 8.25H5.40039C4.98618 8.25 4.65039 8.58579 4.65039 9C4.65039 9.41421 4.98618 9.75 5.40039 9.75H11.1895L8.46973 12.4697C8.17709 12.7626 8.17692 13.2384 8.46973 13.5312C8.7625 13.8235 9.2375 13.8235 9.53027 13.5312L14.0605 9L9.53027 4.46973Z" fill="#1F286F"/>
</svg>
