<svg width="36" height="36" viewBox="0 0 36 36" fill="none" xmlns="http://www.w3.org/2000/svg">
<path d="M20.3756 17.9846C19.9659 17.9846 19.554 18.3657 19.554 18.8349C19.554 19.216 19.9638 19.5971 20.3756 19.5971C20.9923 19.5971 21.4308 19.216 21.4308 18.8349C21.4308 18.3657 20.9903 17.9846 20.3756 17.9846ZM17.6773 14.0263C18.3227 14.0263 18.7325 13.6165 18.7325 12.9998C18.7325 12.3831 18.3227 11.9734 17.6773 11.9734C17.0319 11.9734 16.4746 12.3544 16.4746 12.9998C16.4746 13.6165 17.0606 14.0263 17.6773 14.0263ZM17.999 0C8.05805 0 0 8.05805 0 17.999C0 27.9399 8.05805 35.9979 17.999 35.9979C27.9399 35.9979 35.9979 27.9399 35.9979 17.999C36 8.05805 27.9399 0 17.999 0ZM14.5979 22.5597C13.512 22.5597 12.7212 22.3835 11.6947 22.0905L8.73211 23.5861L9.58238 21.064C7.50077 19.5971 6.26737 17.7511 6.26737 15.4912C6.26737 11.5021 10.0208 8.45347 14.5959 8.45347C18.6423 8.45347 22.2503 10.8588 22.953 14.2599C22.6601 14.2004 22.3958 14.1718 22.1622 14.1718C18.1731 14.1718 15.0937 17.163 15.0937 20.771C15.0937 21.3877 15.1818 21.945 15.3293 22.531C15.0937 22.5597 14.8315 22.5597 14.5959 22.5597H14.5979ZM26.8274 25.4342L27.4133 27.5465L25.1842 26.2865C24.334 26.4627 23.5124 26.727 22.6621 26.727C18.7325 26.727 15.6244 24.0287 15.6244 20.685C15.6244 17.3413 18.7325 14.643 22.6621 14.643C26.3869 14.643 29.7306 17.3413 29.7306 20.685C29.7306 22.5617 28.4705 24.2336 26.8274 25.4362V25.4342ZM11.8709 11.9734C11.2542 11.9734 10.6109 12.3544 10.6109 12.9998C10.6109 13.6452 11.2563 14.0263 11.8709 14.0263C12.4856 14.0263 12.9261 13.6165 12.9261 12.9998C12.9261 12.3831 12.4569 11.9734 11.8709 11.9734ZM24.9793 17.9846C24.5388 17.9846 24.1578 18.3657 24.1578 18.8349C24.1578 19.216 24.5388 19.5971 24.9793 19.5971C25.5653 19.5971 26.0058 19.216 26.0058 18.8349C26.0058 18.3657 25.5653 17.9846 24.9793 17.9846Z" fill="white"/>
</svg>
