<svg width="36" height="36" viewBox="0 0 36 36" fill="none" xmlns="http://www.w3.org/2000/svg">
<path d="M18 0C8.05952 0 0 8.05952 0 18C0 27.9405 8.05952 36 18 36C27.9405 36 36 27.9405 36 18C36 8.05952 27.9405 0 18 0ZM31.0338 14.003C31.0338 13.4509 31.4734 13.0114 32.0254 13.0114C32.5775 13.0114 33.017 13.4509 33.017 14.003C33.017 14.555 32.5672 14.9945 32.0254 14.9945H31.0338V14.003ZM13.5123 15.7408L15.1888 12.3673H17.1515L15.7408 15.0559C15.7306 15.0763 15.7204 15.107 15.7204 15.1377C15.7204 15.2501 15.8124 15.3319 15.9146 15.3319H16.0475L16.1599 15.0968H18.1227L16.4359 18.4089C16.4257 18.4293 16.4155 18.46 16.4155 18.4907C16.4155 18.6031 16.5075 18.6849 16.6097 18.6849H17.7444L16.8448 20.3308H14.5856C13.6145 20.2899 14.2176 19.0938 14.2176 19.0938L15.2501 16.9675H13.8905C12.9296 16.9266 13.5327 15.7408 13.5123 15.7408ZM4.07678 21.9357L2.95229 19.881C2.95229 19.881 3.62699 17.816 3.44298 15.0866H5.53862C5.53862 15.0866 5.56929 21.3019 4.07678 21.9357ZM8.89164 21.4859C8.89164 21.4859 8.84053 23.0193 7.50136 23.0193H6.83689C6.83689 23.0193 5.53862 22.8864 5.53862 21.3428H6.85734V12.3673H8.89164V21.4859ZM10.2308 15.0866H12.3264C12.1424 17.816 12.8171 19.8912 12.8069 19.881L11.6824 21.9357C10.2001 21.3019 10.2308 15.0866 10.2308 15.0866ZM13.2771 23.0193C12.9296 23.0193 12.766 22.7944 12.766 22.7944L13.7781 20.8419C13.9416 21.0055 14.1972 20.985 14.1972 20.985H16.8653L15.7919 23.0193H13.2771ZM23.7553 23.0091H16.8551L17.8262 21.0463H19.7685V15.0866H18.46V13.0011H23.0909V15.0866H21.7926V21.0463H23.7553V23.0091ZM31.3303 23.0398H30.809C29.8582 23.0398 29.0915 22.2731 29.0915 21.3224H31.0032V19.1756C31.0032 18.8996 30.7783 18.6849 30.5125 18.6849H27.7626V23.0295H25.759V18.6747H23.7553V16.6302H25.759V15.0457H24.5016V13.0011H25.759V12.3673H27.7626V13.0011H28.5497C29.8071 13.0011 30.8294 14.0234 30.8294 15.2808V16.6302H31.0645C32.1583 16.6302 33.0375 17.5093 33.0477 18.6236V21.3224C33.0477 22.2731 32.281 23.0398 31.3303 23.0398Z" fill="white"/>
</svg>
