<svg width="158" height="53" viewBox="0 0 158 53" fill="none" xmlns="http://www.w3.org/2000/svg">
<g clip-path="url(#clip0_211_738)">
<path d="M149.961 0.188477H152.898V0.690995H151.712V4.04374H151.139V0.690995H149.953V0.188477H149.961Z" fill="white"/>
<path d="M156.641 0.188477H157.089V4.03588H156.539V1.24848L155.401 3.03085H155.079L153.932 1.24062V4.03588H153.398V0.188477H153.87L155.251 2.37914L156.633 0.188477H156.641Z" fill="white"/>
<path d="M27.6385 14.9815V12.2883C27.6385 12.0449 27.4422 11.8564 27.2066 11.8564H16.9207C16.6773 11.8564 16.4888 12.0527 16.4888 12.2883V25.5579C16.4888 26.9634 15.4288 28.1883 14.0312 28.2747C12.6257 28.3689 11.4401 27.356 11.2516 26.029C11.2202 25.8092 11.0396 25.6443 10.8198 25.6443H0.49461C0.251203 25.6443 0.0470549 25.8484 0.0549067 26.0919C0.133425 28.4631 0.808684 30.6852 1.93935 32.6089C4.33417 36.6919 8.77046 39.44 13.8428 39.44C18.9151 39.44 22.9116 36.951 25.3771 33.1978C24.113 30.9129 23.4142 28.3218 23.4142 25.6443C23.4142 21.6477 24.9688 17.8474 27.6385 14.9815Z" fill="white"/>
<path d="M41.9822 33.5432C41.0871 32.02 40.4747 30.3632 40.137 28.6358C40.0978 28.4317 39.9172 28.2825 39.713 28.2825H39.1398C37.7344 28.2825 36.5095 27.2225 36.4231 25.8248C36.321 24.2937 37.5381 23.0139 39.0535 23.0139H52.4095C52.6529 23.0139 52.8413 22.8176 52.8413 22.582V12.2961C52.8413 12.0527 52.645 11.8643 52.4095 11.8643H39.0535C36.5095 11.8643 34.1304 12.5552 32.0889 13.7566C31.1388 14.314 30.2673 14.9814 29.4821 15.7431C29.1601 16.0571 28.8539 16.3791 28.5634 16.7246C28.2336 17.1093 27.9274 17.5097 27.6447 17.9259C26.145 20.1323 25.2656 22.794 25.2656 25.6678C25.2656 27.6622 25.6896 29.5466 26.4513 31.2583C26.6083 31.6195 26.7889 31.965 26.9773 32.3105C27.1501 32.6246 27.3307 32.9308 27.527 33.2291C28.6969 35.0037 30.2594 36.4955 32.0967 37.5712C34.1382 38.7726 36.5173 39.4635 39.0613 39.4635H47.8318C47.9182 39.4635 47.9496 39.3457 47.8711 39.2986C45.4763 37.956 43.427 36.0008 41.9979 33.5668L41.9822 33.5432Z" fill="white"/>
<path d="M97.3252 11.8564H85.7516C85.1941 11.8564 84.668 12.1234 84.3461 12.571L81.2525 16.8345L78.1589 12.571C77.8291 12.1234 77.3109 11.8564 76.7534 11.8564H71.5633C71.3199 11.8564 71.1315 12.0527 71.1315 12.2883V20.517L74.8611 25.6443L65.0384 39.1573C64.9521 39.2751 65.0384 39.4322 65.1798 39.4322H76.7534C77.3109 39.4322 77.8369 39.1652 78.1589 38.7176L81.2525 34.4541L84.3461 38.7176C84.6759 39.1652 85.1941 39.4322 85.7516 39.4322H97.3252C97.4666 39.4322 97.5529 39.2673 97.4666 39.1573L87.6439 25.6443L97.4666 12.1313C97.5529 12.0135 97.4666 11.8564 97.3252 11.8564Z" fill="white"/>
<path d="M67.3834 32.6089C68.5847 30.5674 69.2757 28.1883 69.2757 25.6443V12.2883C69.2757 12.0449 69.0794 11.8564 68.8438 11.8564H58.5579C58.3145 11.8564 58.1261 12.0527 58.1261 12.2883V25.5579C58.1261 26.9399 57.0975 28.1569 55.7234 28.2747C55.3622 28.3061 55.0167 28.2668 54.7026 28.1647C54.3572 28.0548 54.0509 27.8821 53.784 27.6465C53.6819 27.5601 53.5877 27.4659 53.5013 27.3639C53.2736 27.0969 53.093 26.7828 52.9909 26.4452C52.9517 26.3117 52.9203 26.1782 52.8967 26.0369C52.8653 25.817 52.6847 25.6521 52.4649 25.6521H42.1554C41.9041 25.6521 41.7078 25.8641 41.7235 26.1154L41.7392 26.4452C41.7549 26.7514 41.7864 27.0655 41.8256 27.3639C41.8649 27.6779 41.912 27.9841 41.9748 28.2825C42.2732 29.8372 42.8306 31.2898 43.608 32.6089C45.5788 35.9695 48.9237 38.4193 52.8732 39.1809C53.1794 39.2359 53.4856 39.2908 53.7918 39.3301C54.0981 39.3693 54.4043 39.3929 54.7105 39.4164C54.9696 39.4321 55.2366 39.44 55.5035 39.44C60.5837 39.44 65.0121 36.6919 67.4069 32.6089H67.3834Z" fill="white"/>
<path d="M4.0608 50.9426C3.33842 50.9426 2.71813 50.7777 2.1842 50.4479C1.65028 50.1182 1.24198 49.6549 0.94361 49.0503C0.64524 48.4457 0.503906 47.739 0.503906 46.9225C0.503906 46.098 0.653091 45.3913 0.94361 44.7946C1.23413 44.1979 1.64242 43.7267 2.17635 43.4048C2.71028 43.0829 3.33842 42.9102 4.0608 42.9102C4.60257 42.9102 5.08939 43.0122 5.52909 43.2164C5.9688 43.4205 6.33783 43.7032 6.6362 44.0722C6.93457 44.4413 7.13087 44.8653 7.22509 45.3599V45.4149H6.25146L6.2122 45.2971C6.11013 44.983 5.96094 44.7161 5.76465 44.4884C5.56835 44.2685 5.32494 44.0958 5.03442 43.978C4.74391 43.8602 4.42198 43.7974 4.05294 43.7974C3.53472 43.7974 3.08717 43.923 2.70243 44.1822C2.31768 44.4413 2.02717 44.8025 1.81517 45.2657C1.60317 45.729 1.50109 46.2786 1.50109 46.9146C1.50109 47.5506 1.60317 48.1002 1.81517 48.5635C2.02717 49.0346 2.32554 49.3958 2.71028 49.6549C3.09502 49.914 3.54257 50.0396 4.0608 50.0396C4.42198 50.0396 4.75176 49.9768 5.03442 49.859C5.31709 49.7413 5.56835 49.5685 5.7725 49.333C5.97665 49.0974 6.13368 48.8147 6.24361 48.4771L6.25931 48.43H7.2408V48.485C7.13087 48.9796 6.93457 49.4115 6.64405 49.7805C6.35354 50.1496 5.9845 50.4322 5.53694 50.6364C5.08939 50.8405 4.60257 50.9348 4.0608 50.9348V50.9426Z" fill="white"/>
<path d="M10.7513 50.9267C10.2331 50.9267 9.77768 50.8089 9.39294 50.5733C9.00034 50.3378 8.70197 50.0001 8.48212 49.5604C8.26227 49.1207 8.15234 48.6104 8.15234 48.0136C8.15234 47.409 8.26227 46.8908 8.48212 46.459C8.70197 46.0271 9.00034 45.6895 9.39294 45.4539C9.78553 45.2184 10.2331 45.1006 10.7513 45.1006C11.2695 45.1006 11.7249 45.2184 12.1097 45.4539C12.4944 45.6895 12.8006 46.0193 13.0205 46.459C13.2403 46.8987 13.3503 47.409 13.3503 48.0058C13.3503 48.6104 13.2403 49.1286 13.0205 49.5604C12.8006 49.9923 12.5023 50.3299 12.1097 50.5655C11.7249 50.801 11.2695 50.9188 10.7513 50.9188V50.9267ZM10.7513 50.0944C11.0811 50.0944 11.3716 50.0158 11.6072 49.851C11.8427 49.6861 12.039 49.4505 12.1725 49.1364C12.306 48.8224 12.3766 48.4533 12.3766 48.0136C12.3766 47.5661 12.306 47.1892 12.1725 46.883C12.039 46.5767 11.8506 46.3412 11.5993 46.1763C11.3559 46.0114 11.0654 45.9329 10.7356 45.9329C10.4058 45.9329 10.131 46.0114 9.87975 46.1763C9.63634 46.3412 9.44005 46.5767 9.30657 46.883C9.17308 47.1892 9.10242 47.5661 9.10242 47.9979C9.10242 48.4455 9.17308 48.8224 9.30657 49.1286C9.44005 49.4348 9.63634 49.6782 9.87975 49.8431C10.1232 50.008 10.4137 50.0865 10.7435 50.0865L10.7513 50.0944Z" fill="white"/>
<path d="M14.4727 52.7011V45.2105H15.407V46.1605H15.4306C15.5484 45.9407 15.6975 45.7522 15.8703 45.5952C16.043 45.4382 16.2472 45.3204 16.4749 45.234C16.7026 45.1477 16.946 45.1084 17.213 45.1084C17.6919 45.1084 18.1081 45.2262 18.4692 45.4696C18.8304 45.7051 19.1052 46.0428 19.3015 46.4825C19.4978 46.9222 19.5999 47.4325 19.5999 48.0214C19.5999 48.6182 19.4978 49.1285 19.3015 49.5604C19.1052 49.9922 18.8226 50.3299 18.4692 50.5733C18.1159 50.8088 17.6998 50.9345 17.2287 50.9345C16.9695 50.9345 16.7183 50.8952 16.4906 50.8088C16.2629 50.7225 16.0587 50.6047 15.8781 50.4477C15.6975 50.2906 15.5484 50.1022 15.4306 49.8902H15.407V52.7168H14.4727V52.7011ZM17.0245 50.0943C17.3543 50.0943 17.637 50.008 17.8804 49.8431C18.1238 49.6703 18.3044 49.4348 18.4378 49.1207C18.5635 48.8066 18.6341 48.4454 18.6341 48.0214C18.6341 47.5817 18.5713 47.2127 18.4378 46.9065C18.3122 46.5924 18.1238 46.3568 17.8804 46.192C17.637 46.0271 17.3543 45.9407 17.0245 45.9407C16.6947 45.9407 16.4278 46.0271 16.1844 46.1998C15.941 46.3725 15.7525 46.616 15.6112 46.9222C15.4698 47.2284 15.407 47.5974 15.407 48.0214C15.407 48.4454 15.4777 48.8066 15.619 49.1207C15.7604 49.4348 15.9488 49.6703 16.1922 49.8431C16.4356 50.0158 16.7104 50.1022 17.0324 50.1022L17.0245 50.0943Z" fill="white"/>
<path d="M20.7227 52.7011V45.2105H21.657V46.1605H21.6806C21.7984 45.9407 21.9475 45.7522 22.1203 45.5952C22.293 45.4382 22.4972 45.3204 22.7249 45.234C22.9526 45.1477 23.196 45.1084 23.463 45.1084C23.9419 45.1084 24.3581 45.2262 24.7192 45.4696C25.0804 45.7051 25.3552 46.0428 25.5515 46.4825C25.7478 46.9222 25.8499 47.4325 25.8499 48.0214C25.8499 48.6182 25.7478 49.1285 25.5515 49.5604C25.3552 49.9922 25.0726 50.3299 24.7192 50.5733C24.3659 50.8088 23.9498 50.9345 23.4787 50.9345C23.2195 50.9345 22.9683 50.8952 22.7406 50.8088C22.5129 50.7225 22.3087 50.6047 22.1281 50.4477C21.9475 50.2906 21.7984 50.1022 21.6806 49.8902H21.657V52.7168H20.7227V52.7011ZM23.2745 50.0943C23.6043 50.0943 23.887 50.008 24.1304 49.8431C24.3738 49.6703 24.5544 49.4348 24.6878 49.1207C24.8135 48.8066 24.8841 48.4454 24.8841 48.0214C24.8841 47.5817 24.8213 47.2127 24.6878 46.9065C24.5622 46.5924 24.3738 46.3568 24.1304 46.192C23.887 46.0271 23.6043 45.9407 23.2745 45.9407C22.9447 45.9407 22.6778 46.0271 22.4344 46.1998C22.191 46.3725 22.0025 46.616 21.8612 46.9222C21.7198 47.2284 21.657 47.5974 21.657 48.0214C21.657 48.4454 21.7277 48.8066 21.869 49.1207C22.0104 49.4348 22.1988 49.6703 22.4422 49.8431C22.6856 50.0158 22.9604 50.1022 23.2824 50.1022L23.2745 50.0943Z" fill="white"/>
<path d="M29.2824 50.9266C28.7485 50.9266 28.2853 50.8088 27.9005 50.5733C27.5158 50.3377 27.2174 50.0001 27.0133 49.5683C26.8091 49.1364 26.707 48.626 26.707 48.0371C26.707 47.4561 26.8091 46.9457 27.0211 46.506C27.2331 46.0663 27.5236 45.7208 27.9005 45.4774C28.2774 45.234 28.725 45.1084 29.2353 45.1084C29.7457 45.1084 30.1854 45.2262 30.5544 45.4617C30.9235 45.6973 31.2061 46.0271 31.4024 46.4511C31.5987 46.8751 31.7008 47.3697 31.7008 47.9272V48.2727H27.186V47.5425H31.2375L30.7664 48.2177V47.8565C30.7664 47.4247 30.7036 47.0635 30.5701 46.7808C30.4367 46.4982 30.2561 46.2862 30.0284 46.1448C29.8007 46.0035 29.5337 45.9407 29.2353 45.9407C28.937 45.9407 28.67 46.0114 28.4344 46.1605C28.1989 46.3097 28.0104 46.5217 27.877 46.8044C27.7435 47.0871 27.6728 47.4404 27.6728 47.8565V48.2177C27.6728 48.6103 27.7435 48.948 27.877 49.2306C28.0104 49.5133 28.2067 49.7253 28.4501 49.8745C28.7014 50.0237 28.9919 50.0943 29.3295 50.0943C29.5651 50.0943 29.7771 50.0551 29.9656 49.9844C30.154 49.9137 30.311 49.8117 30.4367 49.686C30.5623 49.5604 30.6487 49.4191 30.7036 49.2542L30.7193 49.2071H31.638V49.262C31.583 49.4897 31.4888 49.7096 31.3632 49.9059C31.2297 50.11 31.0648 50.2828 30.8607 50.4398C30.6565 50.5968 30.421 50.7146 30.1618 50.7931C29.9027 50.8795 29.6122 50.9188 29.3138 50.9188L29.2824 50.9266Z" fill="white"/>
<path d="M32.8125 50.8167V45.2105H33.7469V46.1605H33.7704C33.8646 45.8386 34.0217 45.5795 34.2572 45.3911C34.4849 45.2026 34.7598 45.1084 35.0738 45.1084C35.1602 45.1084 35.2309 45.1084 35.2937 45.1241C35.3565 45.132 35.4115 45.1398 35.4507 45.1477V46.0585C35.4507 46.0585 35.3486 46.0349 35.2623 46.0192C35.1759 46.0035 35.066 46.0035 34.9561 46.0035C34.7126 46.0035 34.5006 46.0585 34.3201 46.1684C34.1395 46.2783 33.9981 46.4354 33.8961 46.6317C33.794 46.8358 33.7469 47.0792 33.7469 47.3619V50.8245H32.8125V50.8167Z" fill="white"/>
<path d="M40.4937 50.9267C40.1247 50.9267 39.7949 50.8561 39.5201 50.7147C39.2374 50.5734 39.0254 50.3771 38.8684 50.118C38.7113 49.8589 38.6328 49.5684 38.6328 49.2307C38.6328 48.901 38.7113 48.6261 38.8762 48.3906C39.0333 48.155 39.2688 47.9744 39.575 47.8331C39.8813 47.6996 40.2424 47.6133 40.6743 47.5897L42.7472 47.4719V48.2021L40.7764 48.3199C40.3995 48.3435 40.109 48.4299 39.9048 48.5869C39.7007 48.7439 39.5986 48.9559 39.5986 49.215C39.5986 49.4977 39.7007 49.7097 39.9048 49.8667C40.109 50.0238 40.3759 50.1023 40.7136 50.1023C41.0119 50.1023 41.271 50.0395 41.5066 49.9139C41.7421 49.7882 41.9306 49.6233 42.0641 49.4035C42.2054 49.1915 42.2682 48.9481 42.2682 48.6733V47.0165C42.2682 46.6789 42.1583 46.4041 41.9463 46.2078C41.7343 46.0115 41.4281 45.9173 41.0355 45.9173C40.6743 45.9173 40.3838 45.9958 40.1639 46.1528C39.9441 46.3099 39.8027 46.514 39.7478 46.7653V46.8124H38.8291V46.7496C38.8605 46.4433 38.9704 46.1607 39.151 45.9094C39.3316 45.6581 39.5829 45.454 39.9048 45.3048C40.2267 45.1556 40.6036 45.085 41.0433 45.085C41.483 45.085 41.8678 45.1635 42.1897 45.3127C42.5116 45.4619 42.7629 45.6739 42.9356 45.9487C43.1084 46.2235 43.2026 46.5454 43.2026 46.9223V50.8011H42.2682V49.8903H42.2447C42.1347 50.0944 41.9934 50.275 41.8128 50.4242C41.6322 50.5734 41.4281 50.699 41.2082 50.7776C40.9805 50.8639 40.745 50.9032 40.4937 50.9032V50.9267Z" fill="white"/>
<path d="M44.6328 50.8173V43.0439H45.5672V50.8173H44.6328Z" fill="white"/>
<path d="M47.0742 50.8173V43.0439H48.0086V50.8173H47.0742Z" fill="white"/>
<path d="M51.7826 50.9267C51.2643 50.9267 50.8089 50.8089 50.4242 50.5733C50.0316 50.3378 49.7332 50.0001 49.5134 49.5604C49.2935 49.1207 49.1836 48.6104 49.1836 48.0136C49.1836 47.409 49.2935 46.8908 49.5134 46.459C49.7332 46.0271 50.0316 45.6895 50.4242 45.4539C50.8168 45.2184 51.2643 45.1006 51.7826 45.1006C52.3008 45.1006 52.7562 45.2184 53.1409 45.4539C53.5257 45.6895 53.8319 46.0193 54.0517 46.459C54.2716 46.8987 54.3815 47.409 54.3815 48.0058C54.3815 48.6104 54.2716 49.1286 54.0517 49.5604C53.8319 49.9923 53.5335 50.3299 53.1409 50.5655C52.7562 50.801 52.3008 50.9188 51.7826 50.9188V50.9267ZM51.7904 50.0944C52.1202 50.0944 52.4107 50.0158 52.6463 49.851C52.8818 49.6861 53.0781 49.4505 53.2116 49.1364C53.3451 48.8224 53.4157 48.4533 53.4157 48.0136C53.4157 47.5661 53.3451 47.1892 53.2116 46.883C53.0781 46.5767 52.8897 46.3412 52.6384 46.1763C52.395 46.0114 52.1045 45.9329 51.7747 45.9329C51.4449 45.9329 51.1701 46.0114 50.9189 46.1763C50.6754 46.3412 50.4792 46.5767 50.3457 46.883C50.2122 47.1892 50.1415 47.5661 50.1415 47.9979C50.1415 48.4455 50.2122 48.8224 50.3457 49.1286C50.4792 49.4348 50.6754 49.6782 50.9189 49.8431C51.1623 50.008 51.4528 50.0865 51.7826 50.0865L51.7904 50.0944Z" fill="white"/>
<path d="M55.8372 52.7016C55.7508 52.7016 55.6566 52.7016 55.5624 52.6859C55.4681 52.6781 55.3975 52.6702 55.3347 52.6545V51.8929C55.3739 51.8929 55.421 51.9086 55.4681 51.9165C55.5153 51.9243 55.5781 51.9243 55.633 51.9243C55.9314 51.9243 56.167 51.8693 56.3476 51.7673C56.5281 51.6652 56.6695 51.4532 56.7794 51.1391L56.8893 50.8172L54.8086 45.2031H55.8136L57.4311 50.087L57.2348 49.875H57.5175L57.3212 50.087L58.9465 45.2031H59.9359L57.7452 51.1548C57.6117 51.5082 57.4625 51.7987 57.2976 52.0264C57.1327 52.2541 56.9364 52.419 56.7009 52.5289C56.4653 52.6388 56.1827 52.6938 55.845 52.6938L55.8372 52.7016Z" fill="white"/>
<path d="M65.6263 50.9266C65.1002 50.9266 64.637 50.8088 64.2522 50.5654C63.8675 50.322 63.5613 49.9923 63.3493 49.5525C63.1373 49.1128 63.0273 48.6025 63.0273 48.0057C63.0273 47.409 63.1373 46.8986 63.3493 46.4668C63.5613 46.0349 63.8675 45.6973 64.2522 45.4617C64.637 45.2262 65.0924 45.1084 65.6106 45.1084C66.0739 45.1084 66.4822 45.2026 66.8119 45.3832C67.1417 45.5638 67.4087 45.7994 67.605 46.0899C67.7934 46.3804 67.9112 46.6788 67.9505 47.0007V47.04H67.0396V47.0007C66.9611 46.718 66.8119 46.4746 66.5764 46.2626C66.3408 46.0506 66.0189 45.9407 65.6106 45.9407C65.2887 45.9407 65.006 46.0271 64.7626 46.1998C64.5192 46.3725 64.3308 46.6081 64.1894 46.9222C64.0559 47.2362 63.9853 47.5974 63.9853 48.0214C63.9853 48.4611 64.0559 48.8302 64.1894 49.1442C64.3308 49.4505 64.5192 49.6939 64.7626 49.8588C65.006 50.0237 65.2965 50.11 65.6185 50.11C66.0032 50.11 66.3173 50.0158 66.5528 49.8195C66.7884 49.6232 66.9533 49.372 67.0318 49.0579V49.0186H67.9662V49.0579C67.9112 49.4112 67.7777 49.7331 67.5736 50.0237C67.3616 50.3063 67.0946 50.534 66.757 50.6989C66.4272 50.8638 66.0425 50.9502 65.6185 50.9502L65.6263 50.9266Z" fill="white"/>
<path d="M70.6617 50.9267C70.2926 50.9267 69.9629 50.8561 69.688 50.7147C69.4054 50.5734 69.1934 50.3771 69.0363 50.118C68.8793 49.8589 68.8008 49.5684 68.8008 49.2307C68.8008 48.901 68.8793 48.6261 69.0442 48.3906C69.2012 48.155 69.4368 47.9744 69.743 47.8331C70.0492 47.6996 70.4104 47.6133 70.8423 47.5897L72.9151 47.4719V48.2021L70.9443 48.3199C70.5674 48.3435 70.2769 48.4299 70.0728 48.5869C69.8686 48.7439 69.7666 48.9559 69.7666 49.215C69.7666 49.4977 69.8686 49.7097 70.0728 49.8667C70.2769 50.0238 70.5439 50.1023 70.8815 50.1023C71.1799 50.1023 71.439 50.0395 71.6746 49.9139C71.9101 49.7882 72.0986 49.6233 72.232 49.4035C72.3734 49.1915 72.4362 48.9481 72.4362 48.6733V47.0165C72.4362 46.6789 72.3263 46.4041 72.1143 46.2078C71.9023 46.0115 71.596 45.9173 71.2034 45.9173C70.8423 45.9173 70.5517 45.9958 70.3319 46.1528C70.112 46.3099 69.9707 46.514 69.9157 46.7653V46.8124H68.9971V46.7496C69.0285 46.4433 69.1384 46.1607 69.319 45.9094C69.4996 45.6581 69.7509 45.454 70.0728 45.3048C70.3947 45.1556 70.7716 45.085 71.2113 45.085C71.651 45.085 72.0357 45.1635 72.3577 45.3127C72.6796 45.4619 72.9309 45.6739 73.1036 45.9487C73.2763 46.2235 73.3706 46.5454 73.3706 46.9223V50.8011H72.4362V49.8903H72.4126C72.3027 50.0944 72.1614 50.275 71.9808 50.4242C71.8002 50.5734 71.596 50.699 71.3762 50.7776C71.1485 50.8639 70.9129 50.9032 70.6617 50.9032V50.9267Z" fill="white"/>
<path d="M76.7377 50.9266C76.298 50.9266 75.9211 50.856 75.5992 50.7146C75.2773 50.5733 75.026 50.377 74.8454 50.1257C74.657 49.8745 74.5471 49.584 74.5078 49.2463V49.1992H75.4422V49.2542C75.5129 49.5368 75.6463 49.7567 75.8583 49.9059C76.0703 50.0629 76.3687 50.1414 76.7456 50.1414C76.9968 50.1414 77.2167 50.11 77.3973 50.0394C77.5779 49.9765 77.7114 49.8745 77.8134 49.7567C77.9155 49.6389 77.9626 49.4897 77.9626 49.317C77.9626 49.1128 77.8998 48.948 77.782 48.8302C77.6564 48.7045 77.4366 48.6103 77.1225 48.5318L76.2352 48.3198C75.8819 48.2334 75.5914 48.1235 75.3558 47.9822C75.1203 47.8408 74.9475 47.676 74.8376 47.4718C74.7198 47.2677 74.6648 47.0321 74.6648 46.7651C74.6648 46.4354 74.7512 46.1527 74.924 45.9014C75.0967 45.6502 75.3401 45.4617 75.6542 45.3204C75.9683 45.1791 76.3216 45.1084 76.722 45.1084C77.1225 45.1084 77.4915 45.1791 77.7899 45.3282C78.0883 45.4774 78.3317 45.6737 78.5044 45.925C78.6771 46.1763 78.7792 46.4589 78.7949 46.7651V46.8358H77.9077V46.7965C77.8684 46.5217 77.7506 46.3019 77.5465 46.137C77.3423 45.9721 77.0675 45.8857 76.722 45.8857C76.4943 45.8857 76.298 45.9171 76.1331 45.9878C75.9683 46.0585 75.8426 46.1527 75.7563 46.2783C75.6699 46.404 75.6228 46.5453 75.6228 46.7102C75.6228 46.8437 75.6542 46.9536 75.7091 47.0557C75.772 47.1577 75.8662 47.2441 75.9918 47.3226C76.1174 47.4011 76.2902 47.464 76.4943 47.5111L77.3816 47.7231C77.9469 47.8565 78.3474 48.045 78.5751 48.2884C78.8028 48.524 78.9206 48.8459 78.9206 49.2463C78.9206 49.5761 78.8263 49.8666 78.6379 50.1179C78.4494 50.3691 78.1903 50.5654 77.8606 50.7068C77.5308 50.8481 77.1617 50.9188 76.7456 50.9188L76.7377 50.9266Z" fill="white"/>
<path d="M81.8946 50.9269C81.3842 50.9269 80.9995 50.8012 80.7404 50.5578C80.4891 50.3144 80.3556 49.9218 80.3556 49.3879V45.9881H79.5391V45.2107H80.3556V43.6953H81.3293V45.2107H82.3971V45.9881H81.3293V49.3801C81.3293 49.6784 81.3921 49.8826 81.5256 49.9846C81.6512 50.0946 81.8475 50.1417 82.0988 50.1417C82.1537 50.1417 82.2087 50.1417 82.2636 50.1338C82.3186 50.1338 82.3579 50.126 82.405 50.1181V50.8798C82.35 50.8798 82.2715 50.8955 82.1851 50.9033C82.0909 50.9112 82.0045 50.919 81.9103 50.919L81.8946 50.9269Z" fill="white"/>
<path d="M84.1123 44.2608C83.9474 44.2608 83.814 44.2058 83.6962 44.088C83.5784 43.9703 83.5234 43.8368 83.5234 43.6719C83.5234 43.507 83.5784 43.3657 83.6962 43.2557C83.814 43.1458 83.9474 43.083 84.1123 43.083C84.2772 43.083 84.4185 43.138 84.5285 43.2557C84.6384 43.3657 84.7012 43.507 84.7012 43.6719C84.7012 43.8368 84.6463 43.9703 84.5285 44.088C84.4185 44.2058 84.2772 44.2608 84.1123 44.2608ZM83.6491 50.8171V45.2109H84.5834V50.8171H83.6491Z" fill="white"/>
<path d="M86.0508 50.8167V45.2105H86.9852V46.0114H87.0087C87.1579 45.7523 87.3777 45.5324 87.6683 45.3597C87.9588 45.187 88.3121 45.1006 88.7361 45.1006C89.3486 45.1006 89.8275 45.289 90.1652 45.6581C90.5028 46.0271 90.6755 46.5375 90.6755 47.1735V50.8089H89.7412V47.3384C89.7412 46.883 89.6312 46.5296 89.4192 46.2862C89.2072 46.0428 88.8853 45.925 88.4535 45.925C88.1551 45.925 87.9038 45.9878 87.684 46.1213C87.4641 46.2548 87.2914 46.4354 87.1736 46.671C87.0558 46.9065 86.993 47.1892 86.993 47.5033V50.801H86.0586L86.0508 50.8167Z" fill="white"/>
<path d="M94.4195 52.811C93.9562 52.811 93.5558 52.7482 93.2181 52.6147C92.8727 52.4813 92.5978 52.3085 92.3858 52.0808C92.1738 51.8531 92.0404 51.6018 91.9775 51.327V51.2799H92.9119L92.9355 51.327C93.0218 51.5312 93.2024 51.6882 93.4537 51.806C93.7128 51.9238 94.0269 51.9787 94.4116 51.9787C94.9063 51.9787 95.2832 51.8531 95.558 51.6018C95.8328 51.3506 95.9584 51.0051 95.9584 50.5733V49.8587H95.9349C95.825 50.0707 95.6758 50.2435 95.503 50.4005C95.3303 50.5497 95.1261 50.6675 94.8984 50.7538C94.6707 50.8402 94.4195 50.8795 94.1525 50.8795C93.6814 50.8795 93.2653 50.7617 92.9119 50.5183C92.5507 50.2827 92.2759 49.9451 92.0796 49.5132C91.8833 49.0814 91.7812 48.571 91.7812 47.99C91.7812 47.4011 91.8833 46.8986 92.0875 46.4667C92.2916 46.0349 92.5743 45.7051 92.9276 45.4695C93.2888 45.234 93.705 45.1162 94.1761 45.1162C94.443 45.1162 94.6864 45.1633 94.9063 45.2497C95.1261 45.3361 95.3303 45.4617 95.503 45.6187C95.6758 45.7758 95.825 45.9564 95.9349 46.1684H95.9584V45.2183H96.8928V50.6675C96.8928 51.0993 96.7907 51.4841 96.5944 51.7981C96.3981 52.1122 96.1076 52.3713 95.7386 52.5441C95.3695 52.7168 94.9298 52.811 94.4273 52.811H94.4195ZM94.3567 50.0393C94.6786 50.0393 94.9534 49.953 95.1968 49.7802C95.4324 49.6075 95.6208 49.3719 95.7543 49.0578C95.8878 48.7438 95.9584 48.3904 95.9584 47.9743C95.9584 47.5581 95.8878 47.197 95.7543 46.8907C95.6208 46.5845 95.4324 46.349 95.189 46.1762C94.9455 46.0113 94.6707 45.925 94.3567 45.925C94.0426 45.925 93.7364 46.0113 93.493 46.1762C93.2495 46.3411 93.0611 46.5767 92.9276 46.8829C92.7941 47.1891 92.7313 47.5503 92.7313 47.9664C92.7313 48.3983 92.7941 48.7595 92.9276 49.0657C93.0611 49.3719 93.2495 49.6075 93.493 49.7802C93.7364 49.9451 94.0269 50.0315 94.3567 50.0315V50.0393Z" fill="white"/>
<path d="M148.445 24.1363C148.374 23.2255 148.241 22.3382 148.052 21.4667C147.722 20.0062 147.22 18.6086 146.56 17.3052C146.545 17.2659 146.521 17.2345 146.505 17.2031L144.063 18.6479L142.768 19.4173L140.318 20.8699L139.321 21.4588L136.871 22.9114L135.827 23.5317L132.615 25.4319L132.498 25.5025L131.485 26.0993L130.166 26.8845L130.048 26.9551L128.847 27.6696L125.792 29.4834L124.504 30.2451L123.342 30.936L121.23 32.1845L118.788 33.6371L117.485 34.4065L115.043 35.8513C115.043 35.8513 115.09 35.9141 115.114 35.9455C115.962 37.1625 116.951 38.2696 118.058 39.2433C118.733 39.84 119.448 40.3818 120.202 40.8765C121.529 41.7402 122.973 42.439 124.504 42.9336C125.886 43.3812 127.339 43.6717 128.847 43.7816V39.4317C127.323 39.2904 125.879 38.8978 124.536 38.3089C124.528 38.3089 124.512 38.3011 124.504 38.2932C123.633 37.9085 122.808 37.4295 122.039 36.8799L124.504 35.4194L124.771 35.2624L127.716 33.5193L128.847 32.8519L130.166 32.0667L131.485 31.2815L134.421 29.5384L134.539 29.4677L135.827 28.7061L136.871 28.0858L136.989 28.0151L141.245 25.4947L141.323 25.4476L143.694 24.0421L144.056 23.8301C144.071 23.9793 144.087 24.1363 144.103 24.2855C144.134 24.6859 144.158 25.0864 144.158 25.4947C144.158 25.903 144.134 26.3034 144.103 26.7039C144.087 26.8531 144.071 27.0101 144.056 27.1593C143.875 28.6825 143.451 30.1351 142.815 31.4699C142.799 31.5092 142.784 31.5406 142.768 31.5799L144.063 32.3493L146.505 33.7941C146.505 33.7941 146.545 33.7234 146.56 33.692C147.22 32.3886 147.722 30.991 148.052 29.5305C148.248 28.6668 148.382 27.7717 148.445 26.8609C148.476 26.4133 148.5 25.9579 148.5 25.4947C148.5 25.0314 148.476 24.5839 148.445 24.1285V24.1363Z" fill="white"/>
<path d="M118.788 17.3761L121.23 18.8287L123.342 20.0771L123.46 20.0064L124.504 19.3862L127.716 17.486L124.771 15.7429L124.504 15.5859L122.039 14.1254C122.808 13.5758 123.633 13.1047 124.504 12.7121C124.512 12.7121 124.528 12.7042 124.536 12.6964C125.879 12.1075 127.323 11.7149 128.847 11.5736V7.22363C127.339 7.33356 125.886 7.61623 124.504 8.07163C122.973 8.57415 121.529 9.26511 120.202 10.1288C119.448 10.6235 118.733 11.1653 118.058 11.762C116.951 12.7356 115.962 13.8506 115.114 15.0598C115.09 15.0912 115.067 15.1226 115.043 15.154L117.485 16.5987L118.788 17.3682V17.3761Z" fill="white"/>
<path d="M141.543 33.6297L139.101 32.1772L136.989 30.9287L136.871 30.9994L135.826 31.6197L132.615 33.5198L135.559 35.2629L135.826 35.42L138.292 36.8804C137.522 37.43 136.698 37.9012 135.826 38.2937C135.819 38.2937 135.803 38.3016 135.795 38.3095C134.452 38.8983 133.008 39.2909 131.484 39.4323V43.7822C132.992 43.6723 134.445 43.3896 135.826 42.9342C137.358 42.4317 138.802 41.7407 140.129 40.877C140.883 40.3823 141.598 39.8406 142.273 39.2438C143.38 38.2702 144.369 37.1552 145.217 35.946C145.241 35.9146 145.264 35.8832 145.288 35.8518L142.846 34.3992L141.543 33.6297Z" fill="white"/>
<path d="M117.572 31.5879L120.021 30.1353L121.019 29.5464L123.468 28.0939L124.513 27.4736L127.724 25.5734L127.842 25.5027L128.855 24.906L130.174 24.1208L130.292 24.0502L131.493 23.3356L134.547 21.5219L135.835 20.7602L136.997 20.0693L139.109 18.8208L141.551 17.3682L142.855 16.5987L145.297 15.154C145.297 15.154 145.249 15.0912 145.226 15.0598C144.378 13.8427 143.389 12.7356 142.281 11.762C141.606 11.1653 140.892 10.6235 140.138 10.1288C138.811 9.26511 137.366 8.5663 135.835 8.07163C134.453 7.62408 133.001 7.33356 131.493 7.22363V11.5736C133.016 11.7149 134.461 12.1075 135.804 12.6964C135.812 12.6964 135.827 12.7042 135.835 12.7121C136.707 13.0968 137.531 13.5758 138.301 14.1254L135.835 15.5859L135.568 15.7429L132.624 17.486L131.493 18.1534L130.174 18.9386L128.855 19.7238L125.918 21.4669L125.8 21.5376L124.513 22.2992L123.468 22.9195L123.351 22.9902L119.095 25.5106L119.016 25.5577L116.645 26.9632L116.284 27.1752C116.268 27.026 116.253 26.869 116.237 26.7198C116.205 26.3193 116.182 25.9189 116.182 25.5106C116.182 25.1023 116.205 24.7019 116.237 24.3014C116.253 24.1522 116.268 23.9952 116.284 23.846C116.465 22.3227 116.889 20.8702 117.525 19.5353C117.54 19.4961 117.556 19.4647 117.572 19.4254L116.276 18.6559L113.834 17.2112C113.834 17.2112 113.795 17.2819 113.779 17.3133C113.12 18.6167 112.617 20.0143 112.287 21.4747C112.091 22.3384 111.958 23.2336 111.895 24.1444C111.863 24.5919 111.84 25.0473 111.84 25.5106C111.84 25.9739 111.863 26.4214 111.895 26.8768C111.965 27.7876 112.099 28.6749 112.287 29.5464C112.617 31.0069 113.12 32.4045 113.779 33.7079C113.795 33.7472 113.819 33.7786 113.834 33.81L116.276 32.3653L117.572 31.5958V31.5879Z" fill="white"/>
<path d="M151.721 25.5028V25.4793C151.721 23.8932 152.742 22.4877 154.25 22.0009L155.247 21.679C154.831 18.9151 153.951 16.3004 152.719 13.9056L151.666 14.2511C150.19 14.7301 148.581 14.2118 147.67 12.9555C147.638 12.9084 147.607 12.8613 147.568 12.8221C146.649 11.5736 146.649 9.86977 147.568 8.61347L148.219 7.71836C146.296 5.77896 144.066 4.15362 141.608 2.91303L140.956 3.80814C140.046 5.06444 138.428 5.59051 136.952 5.1037C136.897 5.08799 136.842 5.06444 136.787 5.04873C135.311 4.57762 134.314 3.1957 134.314 1.64888V0.526067C132.979 0.306215 131.621 0.196289 130.223 0.196289C128.825 0.196289 127.467 0.314067 126.132 0.526067V1.57036C126.132 3.15644 125.111 4.56192 123.604 5.04873L123.549 5.06444C122.041 5.55125 120.392 5.01733 119.466 3.73747L118.854 2.88947C116.388 4.13007 114.158 5.7554 112.242 7.69481L112.894 8.58992C113.805 9.84621 113.805 11.5501 112.894 12.7985C112.863 12.8456 112.831 12.8927 112.792 12.932C111.889 14.1883 110.271 14.7065 108.795 14.2275L107.743 13.8821C106.503 16.2769 105.631 18.8915 105.215 21.6554L106.267 22.0009C107.759 22.4877 108.74 23.8932 108.74 25.4635C108.74 25.4714 108.74 25.4792 108.74 25.4871C108.74 25.495 108.74 25.5028 108.74 25.5107C108.74 27.081 107.767 28.4865 106.267 28.9733L105.215 29.3188C105.631 32.0827 106.51 34.6973 107.743 37.0921L108.74 36.7702C110.248 36.2834 111.897 36.8173 112.823 38.0972C112.831 38.1129 112.847 38.1286 112.855 38.1364C113.789 39.4163 113.797 41.1594 112.855 42.4393L112.242 43.2873C114.166 45.2267 116.396 46.852 118.854 48.0926L119.466 47.2446C120.4 45.9647 122.049 45.4308 123.557 45.9176C123.572 45.9176 123.588 45.9255 123.612 45.9333C125.119 46.4201 126.14 47.8256 126.14 49.4117V50.456C127.475 50.6758 128.833 50.7858 130.231 50.7858C131.628 50.7858 132.987 50.668 134.322 50.456V49.4117C134.322 47.8256 135.342 46.4201 136.85 45.9333C136.866 45.9333 136.881 45.9255 136.905 45.9176C138.412 45.423 140.061 45.9569 140.996 47.2446L141.608 48.0926C144.074 46.852 146.304 45.2267 148.219 43.2873L147.607 42.4393C146.673 41.1515 146.68 39.4163 147.607 38.1364C147.615 38.1207 147.631 38.105 147.638 38.0972C148.565 36.8173 150.222 36.2834 151.721 36.7702L152.719 37.0921C153.959 34.6973 154.831 32.0827 155.247 29.3188L154.25 28.9969C152.742 28.5101 151.721 27.1046 151.721 25.5185V25.495V25.5028ZM147.175 35.3098C146.492 36.4875 145.691 37.5868 144.788 38.5918C142.959 40.6255 140.705 42.2744 138.177 43.3972C136.952 43.939 135.656 44.3708 134.314 44.6535C132.995 44.9361 131.628 45.0853 130.223 45.0853C128.818 45.0853 127.451 44.9361 126.132 44.6535C124.79 44.3708 123.494 43.9468 122.269 43.3972C119.733 42.2665 117.487 40.6255 115.658 38.5918C114.755 37.5868 113.954 36.4875 113.271 35.3098C111.92 32.9778 111.033 30.3474 110.743 27.5364C110.672 26.869 110.64 26.1938 110.64 25.5028C110.64 24.8118 110.68 24.1366 110.743 23.4692C111.033 20.6582 111.92 18.0278 113.271 15.6958C113.954 14.5181 114.755 13.4188 115.658 12.4138C117.487 10.3801 119.741 8.73125 122.269 7.60844C123.494 7.06666 124.79 6.63481 126.132 6.35214C127.451 6.06947 128.818 5.92029 130.223 5.92029C131.628 5.92029 132.995 6.06947 134.314 6.35214C135.656 6.63481 136.952 7.05881 138.177 7.60844C140.713 8.7391 142.959 10.3801 144.788 12.4138C145.691 13.4188 146.492 14.5181 147.175 15.6958C148.526 18.0278 149.413 20.6582 149.703 23.4692C149.774 24.1366 149.806 24.8118 149.806 25.5028C149.806 26.1938 149.766 26.869 149.703 27.5364C149.413 30.3474 148.526 32.9778 147.175 35.3098Z" fill="white"/>
</g>
<defs>
<clipPath id="clip0_211_738">
<rect width="157.037" height="53" fill="white"/>
</clipPath>
</defs>
</svg>
